<?xml version="1.0" encoding="UTF-8" standalone="no" ?>
<!DOCTYPE svg PUBLIC "-//W3C//DTD SVG 1.1//EN" "http://www.w3.org/Graphics/SVG/1.1/DTD/svg11.dtd">
<svg xmlns="http://www.w3.org/2000/svg" xmlns:xlink="http://www.w3.org/1999/xlink" version="1.1" width="1080" height="1080" viewBox="0 0 1080 1080" xml:space="preserve">
<desc>Created with Fabric.js 5.2.4</desc>
<defs>
</defs>
<rect x="0" y="0" width="100%" height="100%" fill="transparent"></rect>
<g transform="matrix(1 0 0 1 540 540)" id="d1412d45-074c-40e1-8db9-18ea1fbd0417"  >
</g>
<g transform="matrix(1 0 0 1 540 540)" id="c4a9091b-e685-4d12-8ca2-68b56f4c89c3"  >
<rect style="stroke: none; stroke-width: 1; stroke-dasharray: none; stroke-linecap: butt; stroke-dashoffset: 0; stroke-linejoin: miter; stroke-miterlimit: 4; fill: rgb(255,255,255); fill-rule: nonzero; opacity: 1; visibility: hidden;" vector-effect="non-scaling-stroke"  x="-540" y="-540" rx="0" ry="0" width="1080" height="1080" />
</g>
<g transform="matrix(0 0 0 0 0 0)"  >
<g style=""   >
</g>
</g>
<g transform="matrix(0 0 0 0 0 0)"  >
<g style=""   >
</g>
</g>
<g transform="matrix(1 0 0 1 519.29 436.44)"  >
<path style="stroke: rgb(0,0,0); stroke-width: 0; stroke-dasharray: none; stroke-linecap: butt; stroke-dashoffset: 0; stroke-linejoin: miter; stroke-miterlimit: 4; fill: rgb(127,173,57); fill-rule: nonzero; opacity: 1;" vector-effect="non-scaling-stroke"  transform=" translate(-254.04, -257.96)" d="M 441 58.9 L 453.1 71 C 462.5 80.4 462.5 95.6 453.1 104.9 L 424 134.1 L 377.9 88 L 407 58.9 C 416.4 49.5 431.6 49.5 440.9 58.9 z M 209.8 256.2 L 344 121.9 L 390.1 168 L 255.8 302.2 C 252.9 305.09999999999997 249.3 307.2 245.4 308.3 L 186.9 325 L 203.6 266.5 C 204.7 262.6 206.79999999999998 259 209.7 256.1 z M 373.1 25 L 175.8 222.2 C 167.10000000000002 230.89999999999998 160.8 241.6 157.5 253.29999999999998 L 128.9 353.29999999999995 C 126.5 361.69999999999993 128.8 370.69999999999993 135 376.9 C 141.2 383.1 150.2 385.4 158.6 383 L 258.6 354.4 C 270.40000000000003 351 281.1 344.7 289.70000000000005 336.09999999999997 L 487 138.9 C 515.1 110.80000000000001 515.1 65.2 487 37.10000000000001 L 474.9 25 C 446.8 -3.1 401.2 -3.1 373.1 25 z M 88 64 C 39.4 64 0 103.4 0 152 L 0 424 C 0 472.6 39.4 512 88 512 L 360 512 C 408.6 512 448 472.6 448 424 L 448 312 C 448 298.7 437.3 288 424 288 C 410.7 288 400 298.7 400 312 L 400 424 C 400 446.1 382.1 464 360 464 L 88 464 C 65.9 464 48 446.1 48 424 L 48 152 C 48 129.9 65.9 112 88 112 L 200 112 C 213.3 112 224 101.3 224 88 C 224 74.7 213.3 64 200 64 L 88 64 z" stroke-linecap="round" />
</g>
<g transform="matrix(NaN NaN NaN NaN 0 0)"  >
<g style=""   >
</g>
</g>
<g transform="matrix(NaN NaN NaN NaN 0 0)"  >
<g style=""   >
</g>
</g>
</svg>